<?xml version="1.0" encoding="utf-8"?>
<!-- Generator: Adobe Illustrator 25.4.1, SVG Export Plug-In . SVG Version: 6.00 Build 0)  -->
<svg version="1.1" id="Capa_1" xmlns="http://www.w3.org/2000/svg" xmlns:xlink="http://www.w3.org/1999/xlink" x="0px" y="0px"
	 viewBox="0 0 1920 334.03" style="enable-background:new 0 0 1920 334.03;" xml:space="preserve">
<style type="text/css">
	.st0{fill:#004DA7;}
	.st1{fill:#1C1F2A;}
</style>
<path class="st0" d="M295.72,13.27v7.43c0,7.33-5.94,13.27-13.27,13.27h-99.36c-7.33,0-13.27-5.94-13.27-13.27v-7.43
	c0-7.33,5.94-13.27,13.27-13.27l99.36,0C289.78,0,295.72,5.94,295.72,13.27z M122.59,0l-7.43,0c-7.33,0-13.27,5.94-13.27,13.27v7.43
	c0,7.33,5.94,13.27,13.27,13.27h7.43c7.33,0,13.27-5.94,13.27-13.27v-7.43C135.86,5.94,129.92,0,122.59,0z M263.14,67.93H115.16
	c-7.33,0-13.27,5.94-13.27,13.27v7.43c0,7.33,5.94,13.27,13.27,13.27h147.97c7.33,0,13.27-5.94,13.27-13.27V81.2
	C276.4,73.87,270.46,67.93,263.14,67.93z M54.66,67.93h-7.43c-7.33,0-13.27,5.94-13.27,13.27v7.43c0,7.33,5.94,13.27,13.27,13.27
	h7.43c7.33,0,13.27-5.94,13.27-13.27V81.2C67.93,73.87,61.99,67.93,54.66,67.93z M244.21,135.86h-95.08
	c-7.33,0-13.27,5.94-13.27,13.27v7.43c0,7.33,5.94,13.27,13.27,13.27h95.08c7.33,0,13.27-5.94,13.27-13.27v-7.43
	C257.47,141.8,251.53,135.86,244.21,135.86z M88.63,135.86H81.2c-7.33,0-13.27,5.94-13.27,13.27v7.43c0,7.33,5.94,13.27,13.27,13.27
	h7.43c7.33,0,13.27-5.94,13.27-13.27v-7.43C101.89,141.8,95.95,135.86,88.63,135.86z M225.17,203.79H81.2
	c-7.33,0-13.27,5.94-13.27,13.27v7.43c0,7.33,5.94,13.27,13.27,13.27h143.97c7.33,0,13.27-5.94,13.27-13.27v-7.43
	C238.44,209.73,232.5,203.79,225.17,203.79z M20.7,203.79h-7.43C5.94,203.79,0,209.73,0,217.06l0,7.43
	c0,7.33,5.94,13.27,13.27,13.27h7.43c7.33,0,13.27-5.94,13.27-13.27v-7.43C33.96,209.73,28.02,203.79,20.7,203.79z"/>
<path class="st1" d="M397.77,0c17.29,0,28.51,1.96,33.66,5.86c5.35,4.12,10.29,14.21,14.82,30.26l53.42,196.69
	c0.62,3.3-0.62,4.94-3.7,4.94h-31.5c-2.06,0-3.5-1.65-4.32-4.94l-18.22-66.39h-88l-18.53,66.39c-0.83,3.3-2.16,4.94-4.01,4.94h-31.8
	c-3.09,0-4.32-1.65-3.71-4.94l54.96-196.69c4.73-16.06,9.57-26.04,14.51-29.95C370.7,2.06,381.51,0,397.77,0z M397.77,33.65
	c-3.5,0-5.71,0.62-6.64,1.85c-0.93,1.23-2.32,4.84-4.17,10.81l-23.77,86.76h69.78l-23.16-86.76c-1.85-5.97-3.29-9.57-4.32-10.81
	C404.46,34.27,401.89,33.65,397.77,33.65z M529.61,1.54h28.1c3.09,0,4.63,1.54,4.63,4.63v226.95c0,3.09-1.54,4.63-4.63,4.63h-28.1
	c-3.09,0-4.63-1.54-4.63-4.63V6.18C524.98,3.09,526.53,1.54,529.61,1.54z M661.15,65.46c25.94,0,44.46,4.01,55.58,12.04
	c11.12,8.03,16.67,20.9,16.67,38.6v107.45c0,4.32-2.06,7.31-6.18,8.96c-15.44,4.53-38.6,6.79-69.47,6.79
	c-23.47,0-40.25-3.29-50.33-9.88c-9.88-6.79-14.82-20.69-14.82-41.68c0-18.32,4.58-31.08,13.74-38.29
	c9.16-7.2,24.13-10.81,44.93-10.81h44.77v-16.05c0-8.65-2.73-14.92-8.18-18.84c-5.46-3.91-14.36-5.86-26.71-5.86h-50.64
	c-1.85,0-3.09-0.31-3.71-0.93c-0.62-0.62-0.93-1.85-0.93-3.7V74.41c0-1.85,0.25-3.03,0.77-3.55c0.51-0.51,1.7-0.98,3.55-1.39
	C624.2,66.8,641.18,65.46,661.15,65.46z M696.04,204.72V165.5h-42.61c-8.65,0-14.77,1.54-18.37,4.63c-3.6,3.09-5.4,8.44-5.4,16.06
	c0,8.44,2.21,14.2,6.64,17.29c4.42,3.09,12.61,4.63,24.55,4.63C675.25,208.11,686.98,206.98,696.04,204.72z M845.18,65.46
	c16.26,0,28.45,0.82,36.59,2.47c8.13,1.65,15.08,5.04,20.84,10.19c5.97,4.94,10.04,11.94,12.2,21c2.16,9.06,3.24,22.23,3.24,39.52
	v94.49c0,3.09-1.65,4.63-4.94,4.63h-27.79c-3.09,0-4.63-1.54-4.63-4.63v-87.69c0-12.55-0.46-21.77-1.39-27.64
	c-0.93-5.86-2.93-10.24-6.02-13.12c-3.3-3.29-6.79-5.25-10.5-5.86c-3.7-0.62-9.78-0.93-18.22-0.93h-35.51v135.24
	c0,3.09-1.54,4.63-4.63,4.63h-28.41c-2.88,0-4.32-1.54-4.32-4.63V75.34c0-1.23,0.2-2.21,0.62-2.93c0.41-0.72,0.82-1.18,1.23-1.39
	c0.41-0.2,1.23-0.41,2.47-0.62C791.86,67.11,814.92,65.46,845.18,65.46z M1114.42,0c28.82,0,49.81,4.84,62.99,14.51
	c13.17,9.47,19.76,26.45,19.76,50.95c0,16.26-2.37,28.61-7.1,37.05c-4.74,8.44-12.56,13.79-23.47,16.05v0.93
	c12.97,1.85,22.28,7.36,27.95,16.52c5.66,9.16,8.49,22.18,8.49,39.06c0,24.5-6.38,41.37-19.14,50.64
	c-12.77,9.06-33.14,13.59-61.14,13.59c-36.03,0-66.39-0.93-91.09-2.78c-1.85-0.2-3.09-0.56-3.71-1.08
	c-0.62-0.51-0.93-1.59-0.93-3.24V6.79c0-1.65,0.31-2.73,0.93-3.24c0.62-0.51,1.85-0.87,3.71-1.08C1055.14,0.82,1082.72,0,1114.42,0z
	 M1110.72,34.58h-43.85v70.09h34.89c22.23,0,36.95-1.95,44.16-5.86c7.61-3.91,11.42-13.38,11.42-28.41
	c0-13.79-3.45-23.21-10.34-28.25C1140.1,37.1,1128.01,34.58,1110.72,34.58z M1122.14,134.62h-55.27v70.09h54.65
	c15.23,0,25.99-2.36,32.27-7.1c6.28-4.73,9.42-13.48,9.42-26.25c0-13.79-3.19-23.36-9.57-28.72
	C1147.26,137.3,1136.76,134.62,1122.14,134.62z M1305.55,65.46c15.44,0,27.53,1.23,36.28,3.7c8.74,2.47,15.79,6.9,21.15,13.28
	c5.56,6.38,9.37,14.56,11.43,24.54c2.05,9.99,3.19,24.04,3.4,42.15v9.26c0,3.09-0.72,5.25-2.16,6.48c-1.44,1.24-4.22,1.85-8.33,1.85
	h-97.88c0.2,16.26,2.88,27.07,8.03,32.42c5.14,5.15,15.23,7.72,30.26,7.72h52.8c3.09,0,4.63,1.54,4.63,4.63v19.14
	c0,2.88-1.44,4.63-4.32,5.25c-15.85,2.26-34.27,3.4-55.27,3.4c-30.06,0-49.82-5.66-59.28-16.98c-9.68-11.53-14.51-34.79-14.51-69.78
	c0-35.2,4.73-58.46,14.2-69.78C1255.63,71.23,1275.5,65.46,1305.55,65.46z M1305.55,97.88c-14.62,0-24.19,2.88-28.72,8.65
	c-4.74,5.56-7.21,16.67-7.41,33.35h70.71c-0.41-16.88-2.78-27.99-7.1-33.35C1328.5,100.76,1319.34,97.88,1305.55,97.88z
	 M1461.17,65.46c17.08,0,29.64,1.13,37.67,3.4c3.29,0.83,4.94,2.68,4.94,5.56v18.84c0,3.5-1.75,5.04-5.25,4.63h-28.1
	c-9.47,0-15.85,1.08-19.14,3.24c-3.3,2.16-4.94,6.64-4.94,13.43v118.57c0,3.09-1.54,4.63-4.63,4.63h-28.1
	c-3.09,0-4.63-1.54-4.63-4.63V104.98c0-17.29,5.97-28.51,17.91-33.66C1435.95,67.42,1447.38,65.46,1461.17,65.46z M1601.35,65.46
	c16.26,0,28.45,0.82,36.59,2.47c8.13,1.65,15.08,5.04,20.84,10.19c5.97,4.94,10.04,11.94,12.2,21c2.16,9.06,3.24,22.23,3.24,39.52
	v94.49c0,3.09-1.65,4.63-4.94,4.63h-27.79c-3.09,0-4.63-1.54-4.63-4.63v-87.69c0-12.55-0.46-21.77-1.39-27.64
	c-0.93-5.86-2.93-10.24-6.02-13.12c-3.3-3.29-6.79-5.25-10.5-5.86c-3.7-0.62-9.78-0.93-18.22-0.93h-35.51v135.24
	c0,3.09-1.54,4.63-4.63,4.63h-28.41c-2.89,0-4.32-1.54-4.32-4.63V75.34c0-1.23,0.21-2.21,0.62-2.93c0.41-0.72,0.82-1.18,1.24-1.39
	c0.41-0.2,1.23-0.41,2.47-0.62C1548.04,67.11,1571.09,65.46,1601.35,65.46z M1771.79,65.46c25.94,0,44.46,4.01,55.58,12.04
	c11.11,8.03,16.67,20.9,16.67,38.6v107.45c0,4.32-2.06,7.31-6.18,8.96c-15.44,4.53-38.6,6.79-69.47,6.79
	c-23.47,0-40.25-3.29-50.33-9.88c-9.88-6.79-14.82-20.69-14.82-41.68c0-18.32,4.58-31.08,13.74-38.29
	c9.16-7.2,24.13-10.81,44.93-10.81h44.77v-16.05c0-8.65-2.73-14.92-8.18-18.84c-5.46-3.91-14.36-5.86-26.71-5.86h-50.64
	c-1.85,0-3.09-0.31-3.71-0.93c-0.62-0.62-0.93-1.85-0.93-3.7V74.41c0-1.85,0.25-3.03,0.77-3.55c0.51-0.51,1.7-0.98,3.55-1.39
	C1734.84,66.8,1751.82,65.46,1771.79,65.46z M1806.68,204.72V165.5h-42.61c-8.65,0-14.77,1.54-18.37,4.63
	c-3.6,3.09-5.4,8.44-5.4,16.06c0,8.44,2.21,14.2,6.64,17.29c4.42,3.09,12.61,4.63,24.55,4.63
	C1785.89,208.11,1797.62,206.98,1806.68,204.72z M1887.27,1.54h28.1c3.09,0,4.63,1.54,4.63,4.63v226.95c0,3.09-1.54,4.63-4.63,4.63
	h-28.1c-3.09,0-4.63-1.54-4.63-4.63V6.18C1882.64,3.09,1884.18,1.54,1887.27,1.54z"/>
<path class="st0" d="M511.97,286.66c3,0,7,0.31,11.98,0.93c0.58,0.08,0.86,0.35,0.86,0.81v2.84c0,0.62-0.27,0.93-0.8,0.93h-13.89
	c-5.39,0-8.09,1.83-8.09,5.5v1.05c0,1.65,0.33,2.92,0.99,3.83c0.66,0.9,1.87,1.73,3.64,2.47l13.46,5.56
	c2.59,1.07,4.43,2.45,5.5,4.14s1.61,3.89,1.61,6.61v1.98c0,3.5-1.07,6.11-3.21,7.84c-0.95,0.82-2.14,1.44-3.58,1.85
	c-2.59,0.7-5.77,1.05-9.51,1.05c-4.98,0-10-0.29-15.07-0.86c-0.49-0.12-0.74-0.45-0.74-0.99v-2.78c0-0.58,0.29-0.86,0.87-0.86h16.92
	c2.8,0,4.84-0.42,6.11-1.27c1.28-0.84,1.91-2.23,1.91-4.17v-1.17c0-1.73-0.34-3.09-1.02-4.07c-0.68-0.99-1.91-1.85-3.67-2.6
	l-14.64-5.93c-2.14-0.82-3.64-2.09-4.51-3.8c-0.86-1.71-1.3-3.94-1.3-6.7v-1.48c0-3.5,1.03-6.09,3.09-7.78
	c0.82-0.7,2.02-1.3,3.58-1.79C504.85,287.03,508.02,286.66,511.97,286.66z M560.38,286.97h28.9c0.62,0,0.93,0.31,0.93,0.93v3.64
	c0,0.62-0.31,0.93-0.93,0.93h-23.59v15.87h21.49c0.62,0,0.93,0.31,0.93,0.93v3.58c0,0.62-0.31,0.93-0.93,0.93h-21.49v14.45h23.59
	c0.62,0,0.93,0.31,0.93,0.93v3.65c0,0.62-0.31,0.93-0.93,0.93h-28.9c-0.62,0-0.93-0.31-0.93-0.93v-44.9
	C559.46,287.28,559.77,286.97,560.38,286.97z M655.18,286.97h4.38c0.62,0,0.93,0.33,0.93,0.99v44.84c0,0.62-0.31,0.93-0.93,0.93
	h-3.77c-0.95,0-1.67-0.37-2.16-1.11l-24.39-36.74v36.93c0,0.62-0.31,0.93-0.93,0.93h-4.38c-0.62,0-0.93-0.31-0.93-0.93v-44.84
	c0-0.66,0.31-0.99,0.93-0.99h4.2c1.07,0.04,1.8,0.16,2.19,0.37c0.39,0.21,0.83,0.68,1.33,1.42l22.6,34.03v-34.83
	C654.25,287.3,654.56,286.97,655.18,286.97z M696.24,286.97h4.38c0.62,0,0.93,0.33,0.93,0.99v44.84c0,0.62-0.31,0.93-0.93,0.93
	h-4.38c-0.62,0-0.93-0.31-0.93-0.93v-44.84C695.32,287.3,695.63,286.97,696.24,286.97z M772.51,310.44c0,4.9-0.28,8.77-0.83,11.61
	c-0.55,2.84-1.55,5.17-2.99,6.98c-1.44,1.85-3.32,3.15-5.62,3.89c-2.31,0.74-5.43,1.11-9.39,1.11c-3.95,0-7.09-0.37-9.42-1.11
	c-2.33-0.74-4.21-2.04-5.65-3.89c-1.4-1.85-2.38-4.2-2.93-7.04c-0.56-2.84-0.83-6.69-0.83-11.55c0-9.26,1.28-15.54,3.83-18.83
	c2.55-3.3,7.55-4.94,15.01-4.94c7.45,0,12.45,1.65,15.01,4.94C771.23,294.9,772.51,301.18,772.51,310.44z M741.14,310.44
	c0,7.25,0.78,12.08,2.35,14.51c1.52,2.39,4.92,3.58,10.19,3.58c5.27,0,8.66-1.19,10.19-3.58c1.56-2.43,2.35-7.27,2.35-14.51
	c0-3.95-0.15-6.98-0.46-9.08c-0.31-2.1-0.92-3.87-1.82-5.31c-0.87-1.48-2.09-2.5-3.67-3.06c-1.59-0.55-3.78-0.83-6.58-0.83
	c-2.8,0-4.98,0.28-6.55,0.83c-1.56,0.56-2.82,1.58-3.77,3.06c-0.86,1.48-1.45,3.28-1.76,5.4
	C741.29,303.58,741.14,306.57,741.14,310.44z M819.88,286.66c3.87,0,6.86,0.2,8.98,0.59c2.12,0.39,3.92,1.12,5.4,2.19
	c1.52,1.07,2.59,2.56,3.21,4.48c0.62,1.91,0.93,4.52,0.93,7.81c0,4.9-0.76,8.36-2.29,10.38c-1.48,2.02-4.1,3.27-7.84,3.77
	l10.44,16.61c0.25,0.33,0.3,0.62,0.16,0.87c-0.14,0.25-0.44,0.37-0.9,0.37h-3.95c-1.03,0-1.85-0.45-2.47-1.36l-10.19-16.12h-9.33
	v16.55c0,0.37-0.06,0.62-0.19,0.74c-0.12,0.12-0.37,0.18-0.74,0.18h-4.38c-0.37,0-0.62-0.06-0.74-0.18
	c-0.12-0.12-0.19-0.37-0.19-0.74v-44.77c0-0.37,0.06-0.61,0.19-0.71c0.12-0.1,0.37-0.17,0.74-0.21
	C810.51,286.81,814.89,286.66,819.88,286.66z M819.32,292.16h-7.29v18.77h7.29c2.02,0,3.33-0.02,3.95-0.06
	c2.72-0.08,4.51-0.33,5.37-0.74c1.32-0.58,2.23-1.47,2.75-2.69c0.51-1.22,0.75-3.08,0.71-5.59c0-4.16-0.82-6.81-2.47-7.97
	C828.07,292.74,824.63,292.16,819.32,292.16z M961.91,286.97h4.88c0.66,0,0.93,0.33,0.81,0.99l-8.4,38.84
	c-0.7,3.21-1.5,5.21-2.41,5.99c-0.95,0.82-2.82,1.23-5.62,1.23c-3.13,0-5.15-0.39-6.05-1.17c-0.87-0.78-1.69-2.8-2.47-6.05
	l-6.67-27.97l-6.67,27.97c-0.54,2.31-1.07,3.91-1.6,4.82c-0.49,0.9-1.24,1.53-2.23,1.88c-0.99,0.35-2.57,0.52-4.76,0.52
	c-2.84,0-4.73-0.41-5.68-1.23c-0.87-0.74-1.65-2.74-2.35-5.99l-8.34-38.84c-0.12-0.66,0.12-0.99,0.74-0.99h4.88
	c0.37,0,0.64,0.33,0.8,0.99l7.84,37.05c0.29,1.36,0.58,2.25,0.87,2.66c0.29,0.41,0.76,0.62,1.42,0.62c0.82,0,1.39-0.19,1.7-0.56
	c0.31-0.37,0.63-1.28,0.96-2.72l8.83-35.14c0.16-0.66,0.53-0.99,1.11-0.99h4.94c0.53,0,0.89,0.33,1.05,0.99l8.83,35.14
	c0.37,1.48,0.7,2.4,0.99,2.75c0.29,0.35,0.84,0.52,1.67,0.52c0.66,0,1.13-0.21,1.42-0.62c0.29-0.41,0.58-1.3,0.86-2.66l7.84-37.05
	C961.27,287.3,961.54,286.97,961.91,286.97z M1000.38,286.97h28.9c0.62,0,0.93,0.31,0.93,0.93v3.64c0,0.62-0.31,0.93-0.93,0.93
	h-23.59v15.87h21.49c0.62,0,0.93,0.31,0.93,0.93v3.58c0,0.62-0.31,0.93-0.93,0.93h-21.49v14.45h23.59c0.62,0,0.93,0.31,0.93,0.93
	v3.65c0,0.62-0.31,0.93-0.93,0.93h-28.9c-0.62,0-0.93-0.31-0.93-0.93v-44.9C999.46,287.28,999.77,286.97,1000.38,286.97z
	 M1079.8,286.66c5.56,0,9.61,0.95,12.16,2.84c2.64,1.89,3.95,5.27,3.95,10.13c0,6.09-1.81,9.57-5.43,10.44v0.19
	c4.41,0.82,6.61,4.53,6.61,11.11c0,4.9-1.26,8.23-3.77,10c-2.43,1.77-6.3,2.65-11.61,2.65c-8.07,0-14-0.14-17.79-0.43
	c-0.37-0.04-0.62-0.11-0.74-0.22c-0.12-0.1-0.19-0.34-0.19-0.71v-44.65c0-0.37,0.06-0.61,0.19-0.71c0.12-0.1,0.37-0.17,0.74-0.21
	C1067.72,286.81,1073.01,286.66,1079.8,286.66z M1079.24,292.16h-10v15.75h7.6c3.83,0,6.65-0.18,8.46-0.55
	c1.65-0.41,2.74-1.1,3.27-2.07c0.53-0.97,0.88-2.64,1.05-5.03c0-3.29-0.8-5.45-2.41-6.49
	C1085.65,292.7,1082.99,292.16,1079.24,292.16z M1081.96,312.91h-12.72v15.63h12.6c3.33,0,5.67-0.52,7.01-1.54
	c1.34-1.03,2.01-2.99,2.01-5.87c0-3.13-0.7-5.28-2.1-6.45C1087.36,313.5,1085.09,312.91,1081.96,312.91z M1186.64,286.66
	c6.92,0,11.84,1.85,14.76,5.56c2.96,3.67,4.44,9.7,4.44,18.1c0,8.44-1.48,14.51-4.44,18.22c-2.92,3.66-7.84,5.49-14.76,5.49
	c-7.54,0-13.2-0.14-16.98-0.43c-0.37-0.04-0.62-0.11-0.74-0.22c-0.12-0.1-0.18-0.32-0.18-0.65v-44.71c0-0.37,0.06-0.61,0.18-0.71
	c0.12-0.1,0.37-0.17,0.74-0.21C1173.44,286.81,1179.1,286.66,1186.64,286.66z M1185.77,292.16h-10.81v36.37h11.67
	c4.69,0,8.01-1.4,9.94-4.2c1.97-2.84,2.96-7.51,2.96-14.02c0-6.42-1.05-11.05-3.15-13.89
	C1194.29,293.58,1190.75,292.16,1185.77,292.16z M1239.87,286.97h28.9c0.62,0,0.93,0.31,0.93,0.93v3.64c0,0.62-0.31,0.93-0.93,0.93
	h-23.59v15.87h21.49c0.62,0,0.93,0.31,0.93,0.93v3.58c0,0.62-0.31,0.93-0.93,0.93h-21.49v14.45h23.59c0.62,0,0.93,0.31,0.93,0.93
	v3.65c0,0.62-0.31,0.93-0.93,0.93h-28.9c-0.62,0-0.93-0.31-0.93-0.93v-44.9C1238.94,287.28,1239.25,286.97,1239.87,286.97z
	 M1299.77,286.97h4.82c0.37,0,0.64,0.33,0.81,0.99l10.25,37.36c0.41,1.48,0.74,2.41,0.99,2.78c0.25,0.37,0.68,0.56,1.3,0.56
	c0.82,0,1.38-0.19,1.67-0.56c0.29-0.37,0.62-1.3,0.99-2.78l9.82-37.36c0.16-0.66,0.43-0.99,0.8-0.99h4.82c0.66,0,0.93,0.33,0.8,0.99
	l-10.31,38.84c-0.62,2.35-1.17,3.95-1.67,4.82c-0.49,0.9-1.23,1.53-2.19,1.88c-0.97,0.35-2.54,0.52-4.73,0.52
	c-2.88,0-4.73-0.39-5.56-1.17c-0.87-0.82-1.73-2.84-2.59-6.05l-10.81-38.84C1298.84,287.3,1299.11,286.97,1299.77,286.97z
	 M1369.31,286.97h28.9c0.62,0,0.93,0.31,0.93,0.93v3.64c0,0.62-0.31,0.93-0.93,0.93h-23.59v15.87h21.49c0.62,0,0.93,0.31,0.93,0.93
	v3.58c0,0.62-0.31,0.93-0.93,0.93h-21.49v14.45h23.59c0.62,0,0.93,0.31,0.93,0.93v3.65c0,0.62-0.31,0.93-0.93,0.93h-28.9
	c-0.62,0-0.93-0.31-0.93-0.93v-44.9C1368.38,287.28,1368.69,286.97,1369.31,286.97z M1432.85,286.97h4.38
	c0.62,0,0.93,0.31,0.93,0.93v40.32h22.42c0.62,0,0.93,0.31,0.93,0.93v3.65c0,0.62-0.31,0.93-0.93,0.93h-27.73
	c-0.62,0-0.93-0.31-0.93-0.93v-44.9C1431.92,287.28,1432.23,286.97,1432.85,286.97z M1525.91,310.44c0,4.9-0.28,8.77-0.83,11.61
	c-0.56,2.84-1.56,5.17-3,6.98c-1.44,1.85-3.31,3.15-5.62,3.89c-2.31,0.74-5.44,1.11-9.39,1.11c-3.95,0-7.09-0.37-9.42-1.11
	c-2.33-0.74-4.21-2.04-5.65-3.89c-1.4-1.85-2.38-4.2-2.93-7.04s-0.84-6.69-0.84-11.55c0-9.26,1.28-15.54,3.83-18.83
	c2.55-3.3,7.55-4.94,15.01-4.94c7.45,0,12.45,1.65,15,4.94C1524.64,294.9,1525.91,301.18,1525.91,310.44z M1494.54,310.44
	c0,7.25,0.78,12.08,2.35,14.51c1.52,2.39,4.92,3.58,10.19,3.58c5.27,0,8.67-1.19,10.19-3.58c1.56-2.43,2.35-7.27,2.35-14.51
	c0-3.95-0.15-6.98-0.46-9.08c-0.31-2.1-0.92-3.87-1.82-5.31c-0.86-1.48-2.09-2.5-3.67-3.06c-1.59-0.55-3.78-0.83-6.58-0.83
	c-2.8,0-4.98,0.28-6.55,0.83c-1.56,0.56-2.82,1.58-3.77,3.06c-0.87,1.48-1.45,3.28-1.76,5.4
	C1494.7,303.58,1494.54,306.57,1494.54,310.44z M1573.28,286.66c3.87,0,6.86,0.2,8.99,0.59c2.12,0.39,3.92,1.12,5.4,2.19
	c1.52,1.07,2.59,2.56,3.21,4.48c0.62,1.91,0.93,4.52,0.93,7.81c0,3.3-0.31,5.88-0.93,7.75c-0.62,1.87-1.65,3.34-3.09,4.41
	c-0.87,0.62-2.06,1.11-3.58,1.48c-2.55,0.58-6.2,0.87-10.93,0.87h-7.84v16.55c0,0.37-0.06,0.62-0.19,0.74
	c-0.12,0.12-0.37,0.18-0.74,0.18h-4.38c-0.37,0-0.62-0.06-0.74-0.18c-0.12-0.12-0.19-0.37-0.19-0.74v-44.77
	c0-0.37,0.06-0.61,0.19-0.71c0.12-0.1,0.37-0.17,0.74-0.21C1563.91,286.81,1568.3,286.66,1573.28,286.66z M1572.72,292.16h-7.29
	v18.77h7.29c2.02,0,3.33-0.02,3.95-0.06c2.72-0.08,4.51-0.33,5.37-0.74c1.32-0.58,2.23-1.47,2.75-2.69
	c0.52-1.22,0.75-3.08,0.71-5.59c0-4.16-0.82-6.81-2.47-7.97C1581.47,292.74,1578.03,292.16,1572.72,292.16z M1624.84,286.97h28.9
	c0.62,0,0.93,0.31,0.93,0.93v3.64c0,0.62-0.31,0.93-0.93,0.93h-23.59v15.87h21.49c0.62,0,0.93,0.31,0.93,0.93v3.58
	c0,0.62-0.31,0.93-0.93,0.93h-21.49v14.45h23.59c0.62,0,0.93,0.31,0.93,0.93v3.65c0,0.62-0.31,0.93-0.93,0.93h-28.9
	c-0.62,0-0.93-0.31-0.93-0.93v-44.9C1623.92,287.28,1624.23,286.97,1624.84,286.97z M1701.54,286.66c3.87,0,6.86,0.2,8.99,0.59
	c2.12,0.39,3.92,1.12,5.4,2.19c1.52,1.07,2.59,2.56,3.21,4.48c0.62,1.91,0.93,4.52,0.93,7.81c0,4.9-0.76,8.36-2.29,10.38
	c-1.48,2.02-4.1,3.27-7.84,3.77l10.44,16.61c0.25,0.33,0.3,0.62,0.15,0.87c-0.14,0.25-0.44,0.37-0.9,0.37h-3.95
	c-1.03,0-1.85-0.45-2.47-1.36l-10.19-16.12h-9.32v16.55c0,0.37-0.06,0.62-0.19,0.74c-0.12,0.12-0.37,0.18-0.74,0.18h-4.38
	c-0.37,0-0.62-0.06-0.74-0.18c-0.12-0.12-0.19-0.37-0.19-0.74v-44.77c0-0.37,0.06-0.61,0.19-0.71c0.12-0.1,0.37-0.17,0.74-0.21
	C1692.18,286.81,1696.56,286.66,1701.54,286.66z M1700.99,292.16h-7.29v18.77h7.29c2.02,0,3.34-0.02,3.95-0.06
	c2.72-0.08,4.51-0.33,5.37-0.74c1.32-0.58,2.23-1.47,2.75-2.69c0.52-1.22,0.75-3.08,0.71-5.59c0-4.16-0.82-6.81-2.47-7.97
	C1709.74,292.74,1706.3,292.16,1700.99,292.16z"/>
</svg>
