<?xml version="1.0" encoding="utf-8"?>
<!-- Generator: Adobe Illustrator 25.4.1, SVG Export Plug-In . SVG Version: 6.00 Build 0)  -->
<svg version="1.1" id="Capa_1" xmlns="http://www.w3.org/2000/svg" xmlns:xlink="http://www.w3.org/1999/xlink" x="0px" y="0px"
	 viewBox="0 0 700 440.19" style="enable-background:new 0 0 700 440.19;" xml:space="preserve">
<style type="text/css">
	.st0{fill:#EBEBFF;}
	.st1{fill:#D6D7F4;}
	.st2{fill:#3D5AC4;}
	.st3{fill:#5571E9;}
	.st4{fill:#27429C;}
	.st5{fill:#312C76;}
	.st6{fill:#151247;}
	.st7{opacity:0.16;fill:#5571E9;}
	.st8{clip-path:url(#XMLID_00000053541617198813541140000013005672026083507606_);fill:#FFFFFF;}
	.st9{fill:#14103D;}
	.st10{fill:#EB8175;}
	.st11{fill:#231C61;}
	.st12{fill:#E1AD9D;}
	.st13{fill:#C8C6F2;}
	.st14{fill:#D8D7FD;}
	.st15{fill:#091218;}
	.st16{fill:#1B2934;}
	.st17{fill:#FFFFFF;}
	.st18{fill:#E16C5F;}
	.st19{clip-path:url(#XMLID_00000127036329628511266480000016262781975497677960_);fill:#231C61;}
	.st20{fill:#F5D100;}
	.st21{fill:none;stroke:#F1AB00;stroke-width:0.2802;stroke-miterlimit:10;}
	.st22{fill:none;stroke:#FFFFFF;stroke-width:1.1206;stroke-linecap:round;stroke-linejoin:round;stroke-miterlimit:10;}
	.st23{fill:#334FBE;}
	.st24{fill:#4265D1;}
	.st25{clip-path:url(#XMLID_00000119838912256532214490000008287162084937405084_);fill:#231C61;}
	.st26{fill:none;stroke:#F1AB00;stroke-width:0.2834;stroke-miterlimit:10;}
	.st27{fill:none;stroke:#FFFFFF;stroke-width:1.1334;stroke-linecap:round;stroke-linejoin:round;stroke-miterlimit:10;}
	.st28{fill:none;stroke:#3D5AC4;stroke-width:2.6489;stroke-miterlimit:10;}
	.st29{fill:none;stroke:#5571E9;stroke-width:2.6489;stroke-miterlimit:10;}
	.st30{fill:#2F4DAB;}
	.st31{fill:none;stroke:#231C61;stroke-width:2.1624;stroke-miterlimit:10;}
	.st32{fill:none;stroke:#231C61;stroke-width:1.1138;stroke-miterlimit:10;}
	.st33{fill:#373482;}
	.st34{fill:none;stroke:#5571E9;stroke-width:2.6489;stroke-linecap:round;stroke-linejoin:round;stroke-miterlimit:10;}
	.st35{clip-path:url(#XMLID_00000177458172296444634910000011061792060681651638_);fill:#FAFAFA;}
	.st36{fill:#E8C400;}
	.st37{clip-path:url(#XMLID_00000152265153554656069900000004476553002906422691_);fill:#FAFAFA;}
	.st38{fill:none;stroke:#3D5AC4;stroke-width:1.1366;stroke-linecap:round;stroke-linejoin:round;stroke-miterlimit:10;}
</style>
<g>
	<g>
		<path class="st0" d="M693,313.36c7.5-24.32,9.26-50.2,3.88-75.07c-8.42-38.92-35.53-86.03-113.77-106.36
			C434.98,93.44,383.55-19.12,244.99,16.73c0,0-74.36,13.51-109.55,136.55C100.25,276.32-37.64,278.41,9.84,385.54
			c7.76,17.51,28.65,36.61,58.65,54.65l561.9-1.89C669.23,391.62,681.32,351.23,693,313.36z"/>
	</g>
	<g>
		<path class="st1" d="M560.41,225.37h-21.08v-23.06c0-11.58-8.07-21.25-18.88-23.76v-28.62h-7.76V178
			c-12.45,1.12-22.2,11.57-22.2,24.31v23.74h-20.97v26.45h-1.41v49.16l-38.12-0.27v-58.76h-43.68v43.06h-30.65v41.83h-37.04v110.73
			h123.05v-0.02h26.43v0.02h154.3V298.62h-62.05L560.41,225.37z"/>
		<polygon class="st1" points="125.39,286.23 125.39,231.18 146.03,231.18 146.03,201.74 153.79,201.74 153.79,231.18 172.8,231.18 
			172.8,286.23 194.13,286.23 194.13,319.21 228.12,319.21 228.12,206.86 299.1,206.86 299.1,438.26 252.85,438.26 232.92,438.26 
			182.79,438.26 159.64,438.26 99.14,438.26 99.14,286.23 		"/>
	</g>
</g>
<g>
	<g>
		<g>
			<path class="st2" d="M513.13,437.7l-323.47,0.25c-12.25,0.01-22.19-9.91-22.2-22.17l0,0l367.84-0.29l0,0
				C535.3,427.75,525.38,437.69,513.13,437.7z"/>
			<path class="st3" d="M513.12,430.06l-323.47,0.25c-9.56,0.01-17.69-6.05-20.82-14.53l-1.38,0c0.01,12.25,9.95,22.18,22.2,22.17
				l323.47-0.25c12.25-0.01,22.18-9.95,22.17-22.2l-1.38,0C530.81,423.99,522.69,430.05,513.12,430.06z"/>
			<path class="st4" d="M372.28,423.05l-41.79,0.03c-4.1,0-7.43-3.32-7.43-7.42l0,0l56.64-0.04l0,0
				C379.7,419.72,376.38,423.05,372.28,423.05z"/>
		</g>
		<g>
			<path class="st3" d="M516.36,415.51l-329.98,0.26l-0.16-199.17c-0.01-11.43,9.25-20.7,20.67-20.71l288.6-0.23
				c11.43-0.01,20.7,9.25,20.71,20.67L516.36,415.51z"/>
			<rect x="203.49" y="212.99" class="st5" width="295.61" height="185.45"/>
			<rect x="203.55" y="380.71" class="st6" width="295.61" height="17.73"/>
			<rect x="203.42" y="212.99" class="st6" width="295.61" height="8.8"/>
			<g>
				<polygon class="st7" points="302,213.03 203.49,311.69 203.56,398.55 203.77,398.55 389.07,212.96 				"/>
				<polygon class="st7" points="241.73,398.53 285.38,398.49 470.68,212.9 427.03,212.94 				"/>
				<polygon class="st7" points="464.4,398.35 499.14,363.55 499.09,297.71 394.8,398.39 				"/>
			</g>
		</g>
	</g>
	<g>
		<defs>
			<rect id="XMLID_8_" x="186.23" y="292.2" width="330.13" height="36.44"/>
		</defs>
		<use xlink:href="#XMLID_8_"  style="overflow:visible;fill:#F5D100;"/>
		<clipPath id="XMLID_00000139986031299242423080000006386706362013318029_">
			<use xlink:href="#XMLID_8_"  style="overflow:visible;"/>
		</clipPath>
		<polygon style="clip-path:url(#XMLID_00000139986031299242423080000006386706362013318029_);fill:#FFFFFF;" points="
			227.42,341.43 199.01,341.43 223.46,285.5 251.87,285.5 		"/>
		<polygon style="clip-path:url(#XMLID_00000139986031299242423080000006386706362013318029_);fill:#FFFFFF;" points="
			287.99,341.43 259.59,341.43 284.04,285.5 312.44,285.5 		"/>
		<polygon style="clip-path:url(#XMLID_00000139986031299242423080000006386706362013318029_);fill:#FFFFFF;" points="
			348.57,341.43 320.16,341.43 344.61,285.5 373.02,285.5 		"/>
		<polygon style="clip-path:url(#XMLID_00000139986031299242423080000006386706362013318029_);fill:#FFFFFF;" points="
			409.14,341.43 380.74,341.43 405.19,285.5 433.59,285.5 		"/>
		<polygon style="clip-path:url(#XMLID_00000139986031299242423080000006386706362013318029_);fill:#FFFFFF;" points="
			469.72,341.43 441.31,341.43 465.77,285.5 494.17,285.5 		"/>
	</g>
</g>
<g>
	<g>
		<g>
			<g>
				<g>
					<path class="st9" d="M159.72,229.28l-6.45,0.25l-3.78-1.2c-1.74-0.55-3.63,0.11-4.64,1.62l-0.48,0.71l18.87,10.42l3.65-7.83
						L159.72,229.28z"/>
					<path class="st9" d="M163.25,241.24l-19.01-10.5l0.66-1.2c0.13-0.24,0.43-0.32,0.67-0.19l18.58,10.27L163.25,241.24"/>
				</g>
				<polygon class="st10" points="166.89,233.25 171.87,224.62 166.89,215.72 159.72,229.28 				"/>
			</g>
			<path class="st9" d="M205.94,183.63c0,0-26.89-7.71-29.48-0.46c-2.59,7.26-18.27,39.38-18.27,39.38l11.71,6.11l17.56-30.5
				l23.63-2.06L205.94,183.63z"/>
		</g>
		<g>
			<g>
				<g>
					<path class="st9" d="M184.08,239.06l-5.26,3.35l-3.88,0.78c-1.79,0.36-3.12,1.85-3.28,3.67l-0.07,0.85l21.55-0.03l-0.6-8.61
						L184.08,239.06z"/>
					<path class="st9" d="M193.22,247.83l-21.72,0.03l0-1.37c0-0.27,0.22-0.49,0.49-0.49l21.23-0.03L193.22,247.83"/>
				</g>
				<polygon class="st10" points="192.53,239.07 193.22,224.62 184.64,223.65 184.08,239.06 				"/>
			</g>
			<path class="st11" d="M209.57,182.4l-25.34,1.15c0,0-3.64,0.2-3.4,8.73c0.24,8.53,0.22,42.86,0.22,42.86l12.17,0.42l2.33-35.96
				l25.37-0.31c5.35-0.07,10.32-3.13,12.44-8.04c0.81-1.88,1.2-3.98,0.7-6.2L209.57,182.4z"/>
		</g>
	</g>
	<g>
		<g>
			<g>
				<path class="st12" d="M185.52,177.29c0.01,2.4-1.63,2.77-4.03,2.77c-2.4,0-4.67-0.35-4.68-2.76c0-2.4,1.94-4.36,4.35-4.36
					C183.56,172.94,185.52,174.88,185.52,177.29z"/>
				<path class="st12" d="M188.58,179.74l-5.03,0.01c-1.31,0-2.39-1.07-2.4-2.39l0,0c0-1.31,1.07-2.39,2.39-2.39l5.03-0.01
					c1.31,0,2.39,1.07,2.4,2.39l0,0C190.97,178.66,189.89,179.74,188.58,179.74z"/>
			</g>
			<path class="st13" d="M188.39,180.25l-1.68-8.24l20.69-2.25l4.14-24.17c0.42-2.2,3.6-4.92,5.8-4.51l-0.63-0.18
				c2.2,0.42,4.22,2.97,3.8,5.17l-4.03,28.92c-0.3,1.56-1.48,2.8-3.02,3.18L188.39,180.25z"/>
		</g>
		<path class="st14" d="M229.72,141.62c0.43,0.03,0.85,0.13,1.24,0.29l0.21,0.08c3.55,1.39,5.96,5.2,6.12,8.77l-3.23,34.3
			c-21.44-0.19-24.48-2.65-24.48-2.65l1.7-35.08c0.26-3.31,1.78-6.42,5.55-6.73l0,0L229.72,141.62z"/>
		<g>
			<g>
				<g>
					<path class="st10" d="M206.11,179.98c0.16,2.4-1.44,2.87-3.84,3.03c-2.4,0.16-4.69-0.04-4.85-2.44
						c-0.16-2.4,1.65-4.48,4.05-4.64C203.87,175.77,205.94,177.58,206.11,179.98z"/>
					<path class="st10" d="M209.32,182.23l-5.02,0.34c-1.31,0.09-2.46-0.91-2.55-2.22l0,0c-0.09-1.31,0.91-2.46,2.22-2.55l5.02-0.34
						c1.31-0.09,2.46,0.91,2.55,2.22l0,0C211.63,180.99,210.63,182.14,209.32,182.23z"/>
				</g>
				<path class="st14" d="M209.16,182.75l-2.22-8.11l22.55-3.62l-1.28-20.97c0.27-2.22,2.7-4.72,4.92-4.45l0,0
					c2.22,0.27,4.4,2.68,4.13,4.9l1.62,25.12c-0.19,1.58-1.29,2.9-2.8,3.37L209.16,182.75z"/>
			</g>
		</g>
		<g>
			<path class="st15" d="M170.15,154.9l24.6,2.32c0.81,0.08,1.45,0.71,1.55,1.51l2.58,22.17c0.13,1.09-0.78,2.02-1.87,1.91
				L172,180.46c-0.82-0.08-1.47-0.73-1.55-1.55l-2.17-22.13C168.17,155.7,169.08,154.8,170.15,154.9z"/>
			<path class="st16" d="M168.74,154.77l24.6,2.32c0.81,0.08,1.45,0.71,1.55,1.51l2.58,22.17c0.13,1.09-0.78,2.02-1.87,1.91
				l-25.01-2.36c-0.82-0.08-1.47-0.73-1.55-1.55l-2.17-22.13C166.76,155.57,167.66,154.66,168.74,154.77z"/>
			<path class="st15" d="M198.2,181.05l16.81,1.59c0.51,0.05,0.89,0.5,0.84,1.01l0,0c-0.05,0.51-0.5,0.89-1.02,0.84l-17.82-1.62
				L198.2,181.05z"/>
			<path class="st17" d="M182.84,168.21c-0.14,1.48-1.45,2.57-2.93,2.43c-1.48-0.14-2.57-1.45-2.43-2.93
				c0.14-1.48,1.45-2.57,2.93-2.43C181.89,165.42,182.98,166.73,182.84,168.21z"/>
		</g>
		<polygon class="st13" points="227.42,154.89 227.98,170.65 206.94,174.65 225.48,168.86 		"/>
	</g>
	<g>
		<g>
			<path class="st10" d="M216.27,139.53l1.41,3.77c0.51,1.36,1.76,2.3,3.21,2.4l0,0c2.75,0.19,4.73-2.6,3.65-5.14l-2.47-5.8
				L216.27,139.53z"/>
			<path class="st18" d="M217.52,142.89c0,0,6.93-1.31,5.91-7.37c-1.02-6.06-7.53-1.33-7.53-1.33l0.64,6.05L217.52,142.89z"/>
			<g>
				<g>
					<defs>
						<path id="XMLID_1_" d="M206.83,124.76c-2.54,5.44-0.2,11.91,5.24,14.45c5.44,2.54,11.91,0.2,14.45-5.24
							c2.54-5.44,0.19-11.91-5.24-14.45C215.84,116.98,209.37,119.33,206.83,124.76z"/>
					</defs>
					<use xlink:href="#XMLID_1_"  style="overflow:visible;fill:#EB8175;"/>
					<clipPath id="XMLID_00000010293194619507677270000006521057817020705164_">
						<use xlink:href="#XMLID_1_"  style="overflow:visible;"/>
					</clipPath>
					<path style="clip-path:url(#XMLID_00000010293194619507677270000006521057817020705164_);fill:#231C61;" d="M220.71,131.51
						c0,0-1.71,8.71,4.69,8.9c6.4,0.19,2.92-16.33,2.92-16.33l-10.13-10.19l-15.5,3.81l1.54,10.02c0,0,2.46,1.31,15.79-0.89
						L220.71,131.51z"/>
					<polygon style="clip-path:url(#XMLID_00000010293194619507677270000006521057817020705164_);fill:#231C61;" points="
						214.38,124.7 219.47,132.14 223.86,127.29 					"/>
				</g>
				<path class="st10" d="M219,129.49c-0.72,1.54-0.05,3.37,1.48,4.08c1.54,0.72,3.37,0.06,4.08-1.48c0.72-1.54,0.06-3.37-1.48-4.08
					C221.54,127.29,219.71,127.95,219,129.49z"/>
			</g>
		</g>
		<g>
			<path class="st20" d="M204.72,127.55c0,0-2.35-8.57,3.21-13.87c4.58-4.37,12.07-4.09,16.13,0.77c1.91,2.28,3.44,5.71,3.58,10.87
				L204.72,127.55z"/>
			<path class="st21" d="M205.9,127.41l-0.07-5.35c-0.02-1.36,1.04-2.48,2.4-2.55l0,0c1.34-0.06,2.49,0.93,2.62,2.26l0.54,5.34"/>
			<line class="st22" x1="227.64" y1="125.32" x2="202.7" y2="127.72"/>
		</g>
	</g>
</g>
<g>
	<g>
		<g>
			<polygon class="st10" points="454.7,414.29 460.29,419.71 453.91,423.14 448.46,417.79 			"/>
			<path class="st9" d="M415.35,373.84l3.74,16.53c0.75,3.31,2.19,6.49,4.25,9.41l24.59,22.09l9.73-7.92l-21-22.23l-7.69-29.32
				L415.35,373.84z"/>
			<g>
				<path class="st9" d="M453.73,422.98l-2.01,6.43l-2.3,3.2c-1.06,1.47-1.02,3.46,0.1,4.89l0.52,0.67l15.69-14.62l-6.27-5.87
					L453.73,422.98z"/>
				<polyline class="st9" points="465.88,423.59 450.06,438.33 448.8,436.97 464.61,422.24 465.88,423.59 				"/>
			</g>
		</g>
		<g>
			<polygon class="st10" points="400.93,424.35 398.83,431.35 391.63,429.42 393.73,422.54 			"/>
			<path class="st11" d="M410.58,355.39l-20.17,68.18l12.73,3.18l11.36-34.18l13.95-22.36c0.71-1,1.4-2.04,1.99-3.12
				c1.12-2.05,1.62-4.28,1.6-6.51l-0.05-4.43L410.58,355.39z"/>
			<g>
				<path class="st9" d="M392.04,428.75l-6.36,2.35l-3.97,0.14c-1.82,0.06-3.39,1.32-3.84,3.09l-0.21,0.83l21.32,3.51l0.82-8.62
					L392.04,428.75z"/>
				<polyline class="st9" points="399.03,438.81 377.55,435.27 377.85,433.43 399.34,436.96 399.03,438.81 				"/>
			</g>
		</g>
	</g>
	<g>
		<g>
			<g>
				<polygon class="st23" points="382.43,286.14 374.28,298.86 378.18,301.66 386.62,288.2 				"/>
				<path class="st24" d="M371.84,265.06c0,0,3.77,15.77,22.85,21.97c0.55,0.18,0.97,0.64,1.05,1.21c0.24,1.83,0.25,5.77-3.98,6.94
					c-0.4,0.11-0.84,0.03-1.19-0.19c-2.92-1.83-17.28-10.22-31.22-7.8L371.84,265.06z"/>
				<path class="st23" d="M371.84,265.06c0,0-3.5,15.73-12.49,22.14C359.35,287.2,360.62,273.41,371.84,265.06z"/>
			</g>
			<g>
				<g>
					<g>
						<path class="st10" d="M371.62,298.03c-0.59,2.89,1.79,6.43,4.69,7.02c2.89,0.59,5.72-1.28,6.31-4.17
							c0.59-2.89-1.79-6.43-4.68-7.02C375.04,293.27,372.21,295.14,371.62,298.03z"/>
					</g>
					<polyline class="st10" points="386.94,306.53 381.28,300.62 377.59,305.16 386.94,312.01 					"/>
				</g>
				<path class="st13" d="M386.04,301.07l-5.97,8.88l16.34,14.95c1,0.28,2.04,0.38,3.07,0.3l21.57-2.8c3.4-0.16,6.02-3.05,5.86-6.45
					l0,0c-0.16-3.4,0.49-8.32-2.91-8.16l-25.06,5.15L386.04,301.07z"/>
			</g>
		</g>
		<g>
			<g>
				<path class="st14" d="M434.41,321.45c0.57-4.71-1.56-9.38-5.56-11.94c-1.8-1.15-3.58-1.93-4.86-1.71
					c-4.3,0.73-8.72,2.68-10.62,8.48c-3.22,9.88-4.14,39.07-4.14,39.07l23.12,0.79L434.41,321.45z"/>
			</g>
			<polygon class="st13" points="425.88,322.18 432.83,347.73 434.23,326.06 			"/>
		</g>
		<g>
			<g>
				<g>
					<path class="st10" d="M454.21,372.59c2.18-1.99,2.35-6.24,0.36-8.43c-1.99-2.19-5.37-2.35-7.55-0.36
						c-2.19,1.99-2.35,6.24-0.36,8.43C448.64,374.42,452.03,374.58,454.21,372.59z"/>
				</g>
				<polyline class="st10" points="443.72,354.4 447.94,364.8 453.6,363.31 450.1,352.27 				"/>
			</g>
			<path class="st14" d="M443.99,362.42l11.58-2.55l-7.85-26.85c-0.29-1-0.76-1.93-1.39-2.76l-14.41-17.94
				c-1.95-2.79-5.23-2.29-8.02-0.34l0,0c-2.79,1.95-3.47,5.79-1.53,8.58l13.88,16.69L443.99,362.42z"/>
		</g>
	</g>
	<g>
		<g>
			<path class="st10" d="M418.58,304.29l0.44,4.05c0.16,1.46,1.16,2.69,2.55,3.15l0,0c2.65,0.87,5.28-1.37,4.86-4.13l-0.97-6.3
				L418.58,304.29z"/>
			<path class="st18" d="M418.97,307.89c0,0,7.14-0.23,7.65-6.42c0.51-6.19-7.08-2.51-7.08-2.51l-0.88,6.08L418.97,307.89z"/>
			<g>
				<g>
					<defs>
						<path id="XMLID_11_" d="M413.01,287.46c-3.85,4.7-3.16,11.62,1.54,15.47c4.7,3.85,11.62,3.16,15.47-1.54
							c3.85-4.7,3.16-11.62-1.54-15.47C423.78,282.08,416.85,282.77,413.01,287.46z"/>
					</defs>
					<use xlink:href="#XMLID_11_"  style="overflow:visible;fill:#EB8175;"/>
					<clipPath id="XMLID_00000093171656699588636170000014132774505276427917_">
						<use xlink:href="#XMLID_11_"  style="overflow:visible;"/>
					</clipPath>
					<path style="clip-path:url(#XMLID_00000093171656699588636170000014132774505276427917_);fill:#231C61;" d="M424.93,297.53
						c0,0-3.85,8.11,2.38,9.89c6.23,1.78,6.93-15.28,6.93-15.28l-7.39-12.51l-16.14-0.12l-0.99,10.21c0,0,2.09,1.9,15.7,3.06
						L424.93,297.53z"/>
					<polygon style="clip-path:url(#XMLID_00000093171656699588636170000014132774505276427917_);fill:#231C61;" points="
						420.42,289.28 423.56,297.84 429.07,294.18 					"/>
				</g>
				<path class="st10" d="M423.75,295.12c-1.09,1.33-0.89,3.29,0.44,4.37c1.33,1.09,3.29,0.89,4.37-0.44
					c1.09-1.33,0.89-3.29-0.44-4.37C426.8,293.6,424.84,293.8,423.75,295.12z"/>
			</g>
		</g>
		<g>
			<path class="st20" d="M410.17,290.61c0,0-0.54-8.97,6.06-13.06c5.44-3.37,12.8-1.53,15.81,4.12c1.41,2.65,2.22,6.37,1.28,11.51
				L410.17,290.61z"/>
			<path class="st26" d="M411.37,290.72l1.05-5.31c0.27-1.35,1.55-2.24,2.91-2.02l0,0c1.34,0.22,2.27,1.44,2.12,2.79l-0.58,5.39"/>
			<line class="st27" x1="433.32" y1="293.19" x2="408.14" y2="290.36"/>
		</g>
	</g>
</g>
<g>
	<g>
		<line class="st28" x1="587.02" y1="358.36" x2="560.97" y2="384.04"/>
		<line class="st28" x1="587.02" y1="330.91" x2="560.97" y2="356.6"/>
		<line class="st28" x1="587.02" y1="303.46" x2="560.97" y2="329.15"/>
		<line class="st28" x1="587.02" y1="276.02" x2="560.97" y2="301.7"/>
		<line class="st28" x1="587.02" y1="248.57" x2="560.97" y2="274.25"/>
		<line class="st28" x1="587.02" y1="221.12" x2="560.97" y2="246.81"/>
		<line class="st28" x1="587.02" y1="193.67" x2="560.97" y2="219.36"/>
		<line class="st28" x1="587.02" y1="166.23" x2="560.97" y2="191.91"/>
		<line class="st28" x1="587.02" y1="138.78" x2="560.97" y2="164.46"/>
		<line class="st28" x1="587.02" y1="111.33" x2="560.97" y2="137.02"/>
		<line class="st28" x1="587.02" y1="83.88" x2="560.97" y2="109.57"/>
		<line class="st28" x1="560.97" y1="356.6" x2="587.02" y2="356.6"/>
		<line class="st28" x1="560.97" y1="329.15" x2="587.02" y2="329.15"/>
		<line class="st28" x1="560.97" y1="301.7" x2="587.02" y2="301.7"/>
		<line class="st28" x1="560.97" y1="274.25" x2="587.02" y2="274.25"/>
		<line class="st28" x1="560.97" y1="246.81" x2="587.02" y2="246.81"/>
		<line class="st28" x1="560.97" y1="219.36" x2="587.02" y2="219.36"/>
		<line class="st28" x1="560.97" y1="191.91" x2="587.02" y2="191.91"/>
		<line class="st28" x1="560.97" y1="164.46" x2="587.02" y2="164.46"/>
		<line class="st28" x1="560.97" y1="137.02" x2="587.02" y2="137.02"/>
		<line class="st28" x1="560.97" y1="109.57" x2="587.02" y2="109.57"/>
		<line class="st29" x1="560.97" y1="391.48" x2="560.97" y2="88.27"/>
		<line class="st29" x1="587.02" y1="391.48" x2="587.02" y2="88.27"/>
		<rect x="547.54" y="384.04" class="st11" width="51.88" height="53.91"/>
	</g>
	<g>
		<g>
			<path class="st2" d="M587.09,88.27h-27.12c-4.78,0-8.66-3.88-8.66-8.66V45.6c0-4.78,3.88-8.66,8.66-8.66h27.12
				c4.78,0,8.66,3.88,8.66,8.66v34.01C595.75,84.39,591.88,88.27,587.09,88.27z"/>
			<path class="st30" d="M572.81,73.33h-17.46V49.31h17.46c3.63,0,6.56,2.94,6.56,6.56v10.89
				C579.38,70.39,576.44,73.33,572.81,73.33z"/>
		</g>
		<g>
			<g>
				<line class="st31" x1="389.07" y1="91.08" x2="409.91" y2="151.62"/>
				<line class="st31" x1="374.57" y1="83.88" x2="333.93" y2="138.78"/>
				<g>
					<path class="st20" d="M386.71,110.82l42,54.92c4.62,6.04,3.47,14.69-2.57,19.31l-54.92,42c-6.04,4.62-14.69,3.47-19.31-2.57
						l-42-54.92c-4.62-6.04-3.47-14.69,2.57-19.31l54.92-42C373.45,103.62,382.09,104.78,386.71,110.82z"/>
					<path class="st32" d="M383.55,121.15l34.36,44.94c3.78,4.94,2.84,12.02-2.11,15.8l-44.94,34.36
						c-4.94,3.78-12.02,2.84-15.8-2.11l-34.36-44.94c-3.78-4.94-2.84-12.02,2.11-15.8l44.93-34.36
						C372.69,115.26,379.77,116.21,383.55,121.15z"/>
					<g>
						<path class="st11" d="M372.87,188.14c-1.09,8.15-13.46,6.51-12.37-1.65C361.6,178.26,373.97,179.91,372.87,188.14z
							 M378.2,142.59l-4.86,34.27l-10.4-1.39c1.54-11.53,2.82-22.74,4.36-34.34L378.2,142.59z"/>
					</g>
				</g>
			</g>
			<g>
				<g>
					<circle class="st11" cx="383.13" cy="78.75" r="17.42"/>
					<path class="st33" d="M395.45,78.75c0,6.8-5.52,12.32-12.32,12.32s-12.32-5.52-12.32-12.32c0-6.8,5.52-12.32,12.32-12.32
						S395.45,71.95,395.45,78.75z"/>
				</g>
				<g>
					<line class="st28" x1="451.45" y1="0" x2="451.45" y2="36.93"/>
					<line class="st28" x1="418.33" y1="0" x2="418.33" y2="36.93"/>
					<line class="st28" x1="484.46" y1="0" x2="484.46" y2="36.93"/>
					<line class="st28" x1="521.14" y1="0" x2="521.14" y2="36.93"/>
					<line class="st28" x1="555.36" y1="0" x2="555.36" y2="36.93"/>
					<line class="st28" x1="590.83" y1="0" x2="590.83" y2="36.93"/>
					<line class="st28" x1="625.68" y1="0" x2="625.68" y2="36.93"/>
					<line class="st28" x1="416.61" y1="36.93" x2="451.45" y2="0"/>
					<line class="st28" x1="451.45" y1="36.93" x2="486.3" y2="0"/>
					<line class="st28" x1="486.3" y1="36.93" x2="521.14" y2="0"/>
					<line class="st28" x1="521.14" y1="36.93" x2="555.99" y2="0"/>
					<line class="st28" x1="555.99" y1="36.93" x2="590.83" y2="0"/>
					<line class="st28" x1="590.83" y1="36.93" x2="625.68" y2="0"/>
					<polygon class="st34" points="383.13,36.93 667.23,36.93 628.97,0 412.52,0 					"/>
					<line class="st34" x1="383.13" y1="36.93" x2="383.13" y2="78.75"/>
				</g>
			</g>
		</g>
	</g>
</g>
<g>
	<g>
		<g>
			<defs>
				<path id="XMLID_4_" d="M232.92,432.96l19.89-51.4c0.95-2.45,4.41-2.45,5.36,0l19.89,51.4H232.92z"/>
			</defs>
			<use xlink:href="#XMLID_4_"  style="overflow:visible;fill:#F5D100;"/>
			<clipPath id="XMLID_00000041291256783291723370000006250830535039261874_">
				<use xlink:href="#XMLID_4_"  style="overflow:visible;"/>
			</clipPath>
			
				<rect x="237.53" y="392.62" style="clip-path:url(#XMLID_00000041291256783291723370000006250830535039261874_);fill:#FAFAFA;" width="35.31" height="10.91"/>
			
				<rect x="235.6" y="413.23" style="clip-path:url(#XMLID_00000041291256783291723370000006250830535039261874_);fill:#FAFAFA;" width="39.94" height="10.91"/>
		</g>
		<rect x="229.29" y="432.96" class="st36" width="52.63" height="4.33"/>
	</g>
	<g>
		<g>
			<defs>
				<path id="XMLID_3_" d="M521.7,433.12l19.89-51.4c0.95-2.45,4.41-2.45,5.36,0l19.89,51.4H521.7z"/>
			</defs>
			<use xlink:href="#XMLID_3_"  style="overflow:visible;fill:#F5D100;"/>
			<clipPath id="XMLID_00000155140210847643965800000013786883020773173901_">
				<use xlink:href="#XMLID_3_"  style="overflow:visible;"/>
			</clipPath>
			
				<rect x="526.31" y="392.77" style="clip-path:url(#XMLID_00000155140210847643965800000013786883020773173901_);fill:#FAFAFA;" width="35.31" height="10.91"/>
			
				<rect x="524.38" y="413.39" style="clip-path:url(#XMLID_00000155140210847643965800000013786883020773173901_);fill:#FAFAFA;" width="39.94" height="10.91"/>
		</g>
		<rect x="518.06" y="433.12" class="st36" width="52.63" height="4.33"/>
	</g>
</g>
<g>
	<g>
		
			<ellipse transform="matrix(0.1473 -0.9891 0.9891 0.1473 -236.7578 419.4798)" class="st3" cx="124.91" cy="347.06" rx="41.3" ry="41.3"/>
		<g>
			<line class="st38" x1="124.91" y1="332.33" x2="124.91" y2="437.29"/>
			<line class="st38" x1="108.85" y1="334.47" x2="124.91" y2="352.48"/>
			<path class="st38" d="M139.16,351.49c-1.15,1.15-14.24,14.79-14.24,14.79"/>
		</g>
	</g>
	<line class="st38" x1="0.6" y1="438.3" x2="693.35" y2="438.3"/>
</g>
</svg>
